HIERARCHY
ROOT Hips
{
  OFFSET -33.9132 29.2015 117.021
  CHANNELS 6 Xposition Yposition Zposition Zrotation Xrotation Yrotation
  JOINT LeftUpLeg
  {
    OFFSET 8.64259 1.95398 -2.38835
    CHANNELS 3 Zrotation Xrotation Yrotation
    JOINT LeftLeg
    {
      OFFSET 43.7702 0 0
      CHANNELS 3 Zrotation Xrotation Yrotation
      JOINT LeftFoot
      {
        OFFSET 40.6238 0 0
        CHANNELS 3 Zrotation Xrotation Yrotation
        JOINT LeftToeBase
        {
          OFFSET 12.7242 0 0
          CHANNELS 3 Zrotation Xrotation Yrotation
          End Site
          {
            OFFSET 0 0 0
          }
        }
      }
    }
  }
  JOINT RightUpLeg
  {
    OFFSET -8.2249 1.95398 -2.59336
    CHANNELS 3 Zrotation Xrotation Yrotation
    JOINT RightLeg
    {
      OFFSET 43.5653 0 0
      CHANNELS 3 Zrotation Xrotation Yrotation
      JOINT RightFoot
      {
        OFFSET 40.6238 0 0
        CHANNELS 3 Zrotation Xrotation Yrotation
        JOINT RightToeBase
        {
          OFFSET 12.7242 0 0
          CHANNELS 3 Zrotation Xrotation Yrotation
          End Site
          {
            OFFSET 0 0 0
          }
        }
      }
    }
  }
  JOINT Spine
  {
    OFFSET 0.165834 0.87714 6.61349
    CHANNELS 3 Zrotation Xrotation Yrotation
    JOINT Spine1
    {
      OFFSET 7.38963 1.71661e-005 0
      CHANNELS 3 Zrotation Xrotation Yrotation
      JOINT Spine2
      {
        OFFSET 11.9445 1.14441e-005 0
        CHANNELS 3 Zrotation Xrotation Yrotation
        JOINT Spine3
        {
          OFFSET 14.7254 4.19617e-005 0
          CHANNELS 3 Zrotation Xrotation Yrotation
          JOINT Spine4
          {
            OFFSET 10.9679 0 0
            CHANNELS 3 Zrotation Xrotation Yrotation
            JOINT RightShoulder
            {
              OFFSET 2.46616 -1.6653 3.69651
              CHANNELS 3 Zrotation Xrotation Yrotation
              JOINT RightArm
              {
                OFFSET 13.0012 0 0
                CHANNELS 3 Zrotation Xrotation Yrotation
                JOINT RightForeArm
                {
                  OFFSET 28.7848 1.62311e-005 0
                  CHANNELS 3 Zrotation Xrotation Yrotation
                  JOINT RightHand
                  {
                    OFFSET 26.5688 1.62095e-005 0
                    CHANNELS 3 Zrotation Xrotation Yrotation
                    End Site
                    {
                      OFFSET 0 0 0
                    }
                  }
                }
              }
            }
            JOINT LeftShoulder
            {
              OFFSET 2.38034 -1.29275 -3.7523
              CHANNELS 3 Zrotation Xrotation Yrotation
              JOINT LeftArm
              {
                OFFSET 16.3182 6.07031e-005 0
                CHANNELS 3 Zrotation Xrotation Yrotation
                JOINT LeftForeArm
                {
                  OFFSET 27.0901 0 0
                  CHANNELS 3 Zrotation Xrotation Yrotation
                  JOINT LeftHand
                  {
                    OFFSET 24.5451 1.51738e-005 0
                    CHANNELS 3 Zrotation Xrotation Yrotation
                    End Site
                    {
                      OFFSET 0 0 0
                    }
                  }
                }
              }
            }
            JOINT Neck
            {
              OFFSET 5.0226 -0.0266342 0
              CHANNELS 3 Zrotation Xrotation Yrotation
              JOINT Head
              {
                OFFSET 6.69364 2.86102e-005 0
                CHANNELS 3 Zrotation Xrotation Yrotation
                End Site
                {
                  OFFSET 0 0 0
                }
              }
            }
          }
        }
      }
    }
  }
}
MOTION
Frames:	7
Frame Time:	0.0416667
-67.3956 98.0778 83.7019 -102.995 -44.5231 -99.5187 -174.238 6.73339 90.3178 -30.9464 14.7792 0.0619697 75.0553 8.91633 -3.38286 18.0028 -8.83159 6.58624 170.892 4.73346 85.5763 -57.1315 -20.3261 -2.20268 61.6106 -1.07174 -0.375754 29.3355 -0.736719 2.01049 1.11777 8.20942 -89.8382 10.4554 2.30092 0.118193 -1.21349 2.30385 0.0167581 -23.7635 2.15896 0.804572 -3.75083 2.15896 0.804573 91.4901 -26.2388 -105.149 44.1118 5.02397 -13.636 -4.93759 -36.2745 -5.25204 -22.4811 2.56484 -18.4541 -85.2541 -44.7262 85.1064 -19.7445 -7.42231 16.8533 -11.7389 32.8769 -0.0166676 10.5993 -0.976513 -12.7463 -2.0141 -5.15819 -9.64101 -1.27976 -4.00687 -5.50789 
-63.4901 97.3483 79.1096 -101.307 -44.7983 -98.8734 -176.446 12.6235 88.8111 -32.2336 13.079 1.14355 73.6992 7.8079 -4.66544 14.4629 -13.6424 10.8081 174.937 -3.06318 84.954 -52.5426 -36.6506 -8.2657 64.2527 -2.94879 0.134561 32.4356 -2.12728 2.26027 1.62116 8.01134 -89.8701 10.8555 3.2879 -0.0491163 -0.811252 3.28255 -0.193935 -23.3779 3.15051 0.942314 -3.36526 3.15049 0.942299 90.7196 -26.0595 -106.849 43.189 4.7732 -16.3634 -5.10368 -39.0133 -5.339 -20.2029 2.45939 -19.4347 -84.2169 -45.4515 86.8632 -23.7637 -8.14086 20.884 -10.4034 29.4996 -2.46095 7.01812 -0.747166 -14.2549 -1.23135 -6.177 -7.91409 -0.94014 -5.19137 -6.18578 
-58.7076 96.7355 72.1053 -98.4691 -44.8591 -97.2979 -178.225 19.4824 88.7261 -29.6211 13.3636 1.85869 65.164 2.65035 -3.99248 16.4599 -11.3174 9.18306 178.827 -5.70295 85.8073 -44.8362 -42.2963 -13.3396 72.2649 -9.38237 -2.31027 35.1968 -3.55667 3.66042 1.95591 7.9641 -89.9711 10.9559 3.90741 -0.312539 -0.709207 3.88986 -0.484478 -23.2902 3.82041 0.878022 -3.27753 3.82041 0.878023 90.7206 -24.2363 -107.621 44.8716 2.17348 -21.9805 -4.91801 -35.9346 -5.24104 -18.8715 2.23046 -19.0701 -83.523 -48.0316 88.2613 -25.5043 -9.79099 19.9239 -10.5752 27.6897 -1.46677 5.13931 -0.644257 -15.6944 1.37516 -5.86895 -2.0841 -1.08842 -5.60295 -7.96638 
-53.4216 96.3888 63.4357 -96.549 -50.5823 -96.199 -177.924 22.4724 89.2894 -18.8517 22.2822 0.19094 62.6433 1.77813 -1.43616 22.9746 -8.51569 11.3584 177.939 0.531346 89.5279 -41.9042 -37.3216 -9.37289 78.3323 -13.5599 -2.30995 31.404 -1.72433 2.4626 1.79191 8.24974 -90.1501 10.3884 3.50097 -0.606395 -1.27809 3.47086 -0.760073 -23.8508 3.52115 0.475158 -3.83817 3.52115 0.475147 89.9606 -23.7173 -109.497 44.6294 0.456248 -28.038 -4.80579 -33.9564 -5.1888 -18.5508 2.28065 -19.6524 -83.2579 -48.7428 88.7454 -26.5183 -10.2938 16.398 -10.1734 25.8744 -1.89044 7.31288 -1.17267 -18.0476 7.04859 -4.27256 3.84134 -0.474341 -5.11878 -7.92534 
-49.8795 97.5338 56.202 -93.1176 -62.0677 -94.3495 -175.383 22.4694 87.447 -10.5641 -6.28821 -3.31376 64.1719 3.60874 -3.83491 23.8442 -7.87397 11.1796 175.019 4.59406 88.3247 -34.7425 -30.5167 -3.96522 77.5762 -13.0686 -3.38746 27.4947 0.175691 1.59939 1.59359 8.19958 -90.1996 10.4865 3.0827 -0.670239 -1.181 3.05022 -0.805392 -23.7455 3.14149 0.288156 -3.73286 3.14147 0.288148 89.5649 -25.0136 -109.749 46.3113 -0.534789 -27.4715 -4.8423 -34.6139 -5.20572 -17.1325 2.04106 -19.2737 -83.4699 -46.1376 88.1342 -26.7803 -10.5193 13.067 -9.84967 23.2769 -2.35053 9.13536 -1.62063 -19.5234 10.513 -2.44289 4.60581 -1.87353 -3.47311 -3.98236 
-47.4445 99.9667 50.8652 -89.5756 -76.9245 -93.6834 -173.986 23.2529 84.2109 -24.1653 -13.3021 -3.86944 66.4501 3.62367 -1.76254 17.1294 -10.6579 8.76638 174.153 4.91142 87.9853 -25.0774 -16.9835 -2.073 73.2056 -9.73701 -3.55533 24.6986 1.58522 1.05585 1.30276 8.03973 -89.9109 10.7989 2.63526 -0.067939 -0.869333 2.62972 -0.183941 -23.425 2.53376 0.727728 -3.4123 2.53376 0.727732 89.5999 -25.7082 -109.359 49.6982 -1.37853 -23.4592 -5.27582 -41.6509 -5.43645 -13.2273 1.66203 -20.3233 -83.5225 -42.9321 87.6737 -26.3504 -11.1451 10.7337 -9.89681 19.7223 -1.98178 13.983 -2.63545 -21.036 10.9189 0.539505 5.05481 -2.99084 -0.649448 -1.73531 
-44.9931 100.713 47.4797 105.073 -87.6383 98.7396 -172.169 17.6885 86.4014 -33.3363 -0.85131 -3.41032 69.9269 7.05009 0.311295 14.3336 -11.2436 7.00874 172.552 5.07704 85.9138 -22.4564 -3.37079 -1.07502 72.1186 -7.58129 -1.8541 23.6741 2.3232 0.169296 1.12663 7.92875 -89.5926 11.0106 2.43158 0.577817 -0.658151 2.45466 0.470166 -23.2072 2.14547 1.28218 -3.19459 2.14547 1.28217 90.2618 -26.0869 -107.799 53.8152 -2.64066 -19.9886 -5.2368 -41.0658 -5.41045 -12.8522 1.98953 -23.6804 -83.1109 -41.5295 88.1881 -25.831 -11.1495 11.4156 -8.66795 23.3729 -3.73356 15.0105 -2.52442 -19.218 6.93936 5.1441 5.7861 -3.07277 3.89414 1.1017 
